<svg width="1200" height="630" viewBox="0 0 1200 630" xmlns="http://www.w3.org/2000/svg">
  <rect width="1200" height="630" fill="#0A0E1A"/>
  <line x1="0" y1="210" x2="1200" y2="210" stroke="#1E2540" stroke-width="0.5"/>
  <line x1="0" y1="420" x2="1200" y2="420" stroke="#1E2540" stroke-width="0.5"/>
  <line x1="400" y1="0" x2="400" y2="630" stroke="#1E2540" stroke-width="0.5"/>
  <line x1="800" y1="0" x2="800" y2="630" stroke="#1E2540" stroke-width="0.5"/>
  <circle cx="1100" cy="100" r="160" fill="#185FA5" opacity="0.18"/>
  <circle cx="1100" cy="100" r="90" fill="#378ADD" opacity="0.12"/>
  <circle cx="140" cy="530" r="140" fill="#0F6E56" opacity="0.18"/>
  <circle cx="140" cy="530" r="70" fill="#1D9E75" opacity="0.12"/>
  <rect x="70" y="66" width="160" height="44" rx="22" fill="#185FA5" opacity="0.9"/>
  <text x="150" y="94" text-anchor="middle" font-family="system-ui, sans-serif" font-size="16" font-weight="600" fill="#E6F1FB" letter-spacing="2">TECHGRAM</text>
  <text x="70" y="240" font-family="system-ui, sans-serif" font-size="80" font-weight="700" fill="#F0F4FF" letter-spacing="-2">The Future of</text>
  <text x="70" y="340" font-family="system-ui, sans-serif" font-size="80" font-weight="700" fill="#378ADD" letter-spacing="-2">AI News.</text>
  <text x="70" y="410" font-family="system-ui, sans-serif" font-size="26" font-weight="400" fill="#8A9AB8">Breaking AI stories, deep dives &amp; daily tech intelligence.</text>
  <line x1="70" y1="448" x2="560" y2="448" stroke="#1E2540" stroke-width="0.5"/>
  <rect x="70" y="466" width="100" height="36" rx="18" fill="#0F2A1A"/>
  <text x="120" y="489" text-anchor="middle" font-family="system-ui, sans-serif" font-size="14" font-weight="500" fill="#5DCAA5">#AINews</text>
  <rect x="182" y="466" width="120" height="36" rx="18" fill="#0B1E30"/>
  <text x="242" y="489" text-anchor="middle" font-family="system-ui, sans-serif" font-size="14" font-weight="500" fill="#85B7EB">#TechToday</text>
  <rect x="314" y="466" width="160" height="36" rx="18" fill="#1A1230"/>
  <text x="394" y="489" text-anchor="middle" font-family="system-ui, sans-serif" font-size="14" font-weight="500" fill="#AFA9EC">#MachineLearning</text>
  <text x="70" y="578" font-family="system-ui, sans-serif" font-size="18" fill="#4A5670">incandescent-basbousa-4872c0.netlify.app</text>
  <circle cx="950" cy="320" r="84" fill="none" stroke="#185FA5" stroke-width="0.5" opacity="0.6"/>
  <circle cx="950" cy="320" r="52" fill="none" stroke="#378ADD" stroke-width="0.5" opacity="0.5"/>
  <circle cx="950" cy="320" r="20" fill="#185FA5" opacity="0.8"/>
  <circle cx="950" cy="320" r="10" fill="#85B7EB"/>
  <circle cx="950" cy="236" r="7" fill="#378ADD" opacity="0.9"/>
  <circle cx="1034" cy="320" r="7" fill="#378ADD" opacity="0.9"/>
  <circle cx="950" cy="404" r="7" fill="#378ADD" opacity="0.9"/>
  <circle cx="866" cy="320" r="7" fill="#378ADD" opacity="0.9"/>
  <line x1="950" y1="243" x2="950" y2="300" stroke="#378ADD" stroke-width="0.5" opacity="0.5"/>
  <line x1="1027" y1="320" x2="970" y2="320" stroke="#378ADD" stroke-width="0.5" opacity="0.5"/>
  <line x1="950" y1="397" x2="950" y2="340" stroke="#378ADD" stroke-width="0.5" opacity="0.5"/>
  <line x1="873" y1="320" x2="930" y2="320" stroke="#378ADD" stroke-width="0.5" opacity="0.5"/>
  <circle cx="997" cy="258" r="5" fill="#5DCAA5" opacity="0.8"/>
  <circle cx="1010" cy="368" r="5" fill="#5DCAA5" opacity="0.8"/>
  <circle cx="895" cy="378" r="5" fill="#AFA9EC" opacity="0.8"/>
  <circle cx="890" cy="264" r="5" fill="#AFA9EC" opacity="0.8"/>
</svg>
